<svg xmlns="http://www.w3.org/2000/svg" width="18" height="18" viewBox="0 0 18 18">
  <g fill="none" fill-rule="evenodd" transform="translate(-3 -3)">
    <polygon points="0 0 24 0 24 24 0 24"/>
    <path fill="#949494" d="M18.7140668,12.882 C18.7500668,12.594 18.7770668,12.306 18.7770668,12 C18.7770668,11.694 18.7500668,11.406 18.7140668,11.118 L20.6130668,9.633 C20.7840668,9.498 20.8290668,9.255 20.7210668,9.057 L18.9210668,5.943 C18.8130668,5.745 18.5700668,5.673 18.3720668,5.745 L16.1310668,6.645 C15.6630668,6.285 15.1590668,5.988 14.6100668,5.763 L14.2680668,3.378 C14.2410668,3.162 14.0520668,3 13.8270668,3 L10.2270668,3 C10.0020668,3 9.81306684,3.162 9.78606684,3.378 L9.44406684,5.763 C8.89506684,5.988 8.39106684,6.294 7.92306684,6.645 L5.68206684,5.745 C5.47506684,5.664 5.24106684,5.745 5.13306684,5.943 L3.33306684,9.057 C3.21606684,9.255 3.27006684,9.498 3.44106684,9.633 L5.34006684,11.118 C5.30406684,11.406 5.27706684,11.703 5.27706684,12 C5.27706684,12.297 5.30406684,12.594 5.34006684,12.882 L3.44106684,14.367 C3.27006684,14.502 3.22506684,14.745 3.33306684,14.943 L5.13306684,18.057 C5.24106684,18.255 5.48406684,18.327 5.68206684,18.255 L7.92306684,17.355 C8.39106684,17.715 8.89506684,18.012 9.44406684,18.237 L9.78606684,20.622 C9.81306684,20.838 10.0020668,21 10.2270668,21 L13.8270668,21 C14.0520668,21 14.2410668,20.838 14.2680668,20.622 L14.6100668,18.237 C15.1590668,18.012 15.6630668,17.706 16.1310668,17.355 L18.3720668,18.255 C18.5790668,18.336 18.8130668,18.255 18.9210668,18.057 L20.7210668,14.943 C20.8290668,14.745 20.7840668,14.502 20.6130668,14.367 L18.7140668,12.882 L18.7140668,12.882 Z M12.0270668,15.15 C10.2900668,15.15 8.87706684,13.737 8.87706684,12 C8.87706684,10.263 10.2900668,8.85 12.0270668,8.85 C13.7640668,8.85 15.1770668,10.263 15.1770668,12 C15.1770668,13.737 13.7640668,15.15 12.0270668,15.15 L12.0270668,15.15 Z"/>
  </g>
</svg>