<?xml version="1.0" encoding="UTF-8"?>
<svg width="209px" height="32px" viewBox="0 0 209 32" version="1.1" xmlns="http://www.w3.org/2000/svg" xmlns:xlink="http://www.w3.org/1999/xlink">
    <!-- Generator: Sketch 48.1 (47250) - http://www.bohemiancoding.com/sketch -->
    <title>Icons/Logotype2</title>
    <desc>Created with Sketch.</desc>
    <defs></defs>
    <g id="01-Dashboard" stroke="none" stroke-width="1" fill="none" fill-rule="evenodd" transform="translate(-72.000000, -20.000000)">
        <g id="Header">
            <g id="Icons/Logotype2" transform="translate(72.000000, 20.000000)">
                <g id="Logotype" stroke-width="1" fill="#7000E3">
                    <path d="M51.5857864,17 L44.4468466,17 L38.7050884,22.7091194 L37.2949116,21.2908806 L42.6014656,16.0144914 L37.2929723,10.7071859 L38.7070277,9.29281411 L44.4154908,15 L51.5857864,15 L49.2928932,12.7071068 L50.7071068,11.2928932 L55.4142136,16 L50.7071068,20.7071068 L49.2928932,19.2928932 L51.5857864,17 Z M60,23.6500225 L53.6504659,30 L38.3495341,30 L32,23.6500225 L32,8.34997747 L38.3495341,2 L53.6504659,2 L60,8.34997747 L60,23.6500225 Z M37.5906566,0 C34.6261602,2.96394438 32.9644964,4.62616016 30,7.59065659 L30,24.4093434 C32.9644964,27.3738398 34.6261602,29.0355036 37.5906566,32 L54.4093434,32 C57.3738398,29.0355036 59.0360556,27.3738398 62,24.4093434 L62,7.59065659 C59.0360556,4.62616016 57.3738398,2.96394438 54.4093434,0 L37.5906566,0 Z" id="git" fill-rule="nonzero"></path>
                    <path d="M16.4835938,25.5344167 C12.1400821,25.5222717 8.62850637,21.9913743 8.64009937,17.6473105 L8.64009937,17.6451023 L8.67322223,5.67615499 L11.5736811,5.68388366 L11.5571197,11.5560156 C12.9146051,10.4563365 14.6441707,9.7988476 16.5266536,9.80381603 C20.8707173,9.81596108 24.3828451,13.3468585 24.3707001,17.6909223 C24.3591071,22.034434 20.8276576,25.5460097 16.4835938,25.5344167 M23.9207811,0 L8.0786668,0 C3.61701687,0 0,3.61701687 0,8.07921885 L0,23.9207811 C0,28.3829831 3.61701687,32 8.0786668,32 L23.9207811,32 C28.3829831,32 32,28.3829831 32,23.9207811 L32,8.07921885 C32,3.61701687 28.3829831,0 23.9207811,0 M16.5470849,12.6971157 C13.8226255,12.6899359 11.6007523,14.8996587 11.5930202,17.6235658 C11.5858404,20.3474729 13.7961154,22.5693461 16.5194703,22.5770782 C19.2439297,22.5848103 21.4658029,20.3745353 21.4729827,17.6506281 C21.4807148,14.9272733 19.2709921,12.7048478 16.5470849,12.6971157" id="badoo"></path>
                </g>
                <path d="M77.8406359,26.9694002 C72.7844126,26.9694002 69,23.2056304 69,18.1872705 C69,13.1689106 72.7844126,9.40514076 77.8716557,9.40514076 C81.9042264,9.40514076 85.4715006,11.8225214 86.246995,15.8922889 L82.6176813,15.8922889 C81.966266,13.7809058 80.0740597,12.6181151 77.8716557,12.6181151 C74.7076386,12.6181151 72.5362544,14.9436965 72.5362544,18.1872705 C72.5362544,21.4614443 74.7696782,23.7564259 77.8406359,23.7564259 C80.0740597,23.7564259 81.966266,22.5324357 82.6176813,20.4516524 L86.246995,20.4516524 C85.4404808,24.6132191 81.8421869,26.9694002 77.8406359,26.9694002 Z M96.7859636,9.40514076 C101.687088,9.40514076 105.626599,13.1077111 105.626599,18.1872705 C105.626599,23.2362301 101.749128,26.9694002 96.7859636,26.9694002 C91.8538193,26.9694002 87.9453276,23.2056304 87.9453276,18.1872705 C87.9453276,13.1077111 91.9158589,9.40514076 96.7859636,9.40514076 Z M96.7859636,12.7099143 C93.8390849,12.7099143 91.481582,14.9436965 91.481582,18.1872705 C91.481582,21.4308446 93.8080651,23.6646267 96.7859636,23.6646267 C99.763862,23.6646267 102.090345,21.4308446 102.090345,18.1872705 C102.090345,14.9436965 99.7328422,12.7099143 96.7859636,12.7099143 Z M121.656068,3.04039168 L125.161303,3.04039168 L125.161303,26.6022032 L121.656068,26.6022032 L121.656068,23.7870257 C120.384257,25.6842105 118.336952,26.9694002 115.669252,26.9694002 C111.109345,26.9694002 107.790229,23.3280294 107.790229,18.1872705 C107.790229,13.0465116 111.171384,9.40514076 115.638232,9.40514076 C118.336952,9.40514076 120.384257,10.7209302 121.656068,12.6487148 L121.656068,3.04039168 Z M116.413726,23.6646267 C119.391625,23.6646267 121.656068,21.4308446 121.656068,18.1872705 C121.656068,14.9742962 119.391625,12.7099143 116.413726,12.7099143 C113.435828,12.7099143 111.326483,14.9742962 111.326483,18.1872705 C111.326483,21.4308446 113.466848,23.6646267 116.413726,23.6646267 Z M136.506786,9.40514076 C141.997286,9.40514076 145.471501,13.5973072 145.130283,19.1358629 L131.264444,19.1358629 C131.543622,22.2264382 133.746026,23.9400245 136.599845,23.9400245 C138.64715,23.9400245 140.353238,23.0832313 141.159752,21.4308446 L144.789066,21.4308446 C143.455215,25.1946144 140.198139,26.9694002 136.568825,26.9694002 C131.388523,26.9694002 127.697169,23.2974296 127.697169,18.2178703 C127.697169,13.1383109 131.357503,9.40514076 136.506786,9.40514076 Z M136.506786,12.4039168 C133.839085,12.4039168 132.039938,14.0563035 131.450562,16.3206854 L141.37689,16.3206854 C140.849554,14.0257038 139.081427,12.4039168 136.506786,12.4039168 Z M149.527336,2 C151.140364,2 152.288096,3.07099143 152.288096,4.57037944 C152.288096,6.06976744 151.140364,7.17135863 149.527336,7.17135863 C147.976347,7.17135863 146.766576,6.06976744 146.766576,4.57037944 C146.766576,3.07099143 147.976347,2 149.527336,2 Z M147.293912,26.6022032 L147.293912,9.77233782 L151.72974,9.77233782 L151.72974,26.6022032 L147.293912,26.6022032 Z M162.206669,26.9694002 C157.646762,26.9694002 154.327646,24.7662179 153.707251,21.0636475 L158.205118,21.0636475 C158.546336,22.4100367 159.569988,23.3280294 162.330748,23.3280294 C164.284994,23.3280294 165.215587,22.869033 165.215587,21.9510404 C165.215587,20.8188494 163.881737,20.7270502 161.307096,20.1150551 C156.468011,18.9828641 154.482745,17.9118727 154.482745,15.004896 C154.482745,11.4553244 157.460644,9.40514076 161.958511,9.40514076 C166.704537,9.40514076 169.03102,11.6695226 169.620396,14.7906977 L165.122528,14.7906977 C164.781311,13.7197062 163.850717,13.0771114 161.803412,13.0771114 C160.035285,13.0771114 158.949593,13.5667075 158.949593,14.4847001 C158.949593,15.2802938 159.725087,15.4332925 162.206669,15.9840881 C167.076774,17.0856793 169.806514,18.003672 169.806514,21.369645 C169.806514,25.1334149 166.425359,26.9694002 162.206669,26.9694002 Z M180.128344,9.374541 C185.060489,9.374541 189.06204,13.1077111 189.06204,18.1872705 C189.06204,23.2668299 185.122528,27 180.128344,27 C175.134161,27 171.194649,23.2362301 171.194649,18.1872705 C171.194649,13.1077111 175.1962,9.374541 180.128344,9.374541 Z M180.128344,14.3317013 C178.081039,14.3317013 176.53005,15.8616891 176.53005,18.1872705 C176.53005,20.5434517 178.112059,22.0428397 180.128344,22.0428397 C182.175649,22.0428397 183.726638,20.5434517 183.726638,18.1872705 C183.726638,15.8616891 182.175649,14.3317013 180.128344,14.3317013 Z M209,26.6022032 L202.330748,26.6022032 L196.312912,19.6866585 L196.312912,26.6022032 L191.03955,26.6022032 L191.03955,3.04039168 L196.312912,3.04039168 L196.312912,16.4736842 L201.927491,9.77233782 L208.596743,9.77233782 L201.307096,17.7894737 L209,26.6022032 Z" id="codeisok" fill="#303030"></path>
            </g>
        </g>
    </g>
</svg>
